<svg width="43" height="35" viewBox="0 0 43 35" fill="none" xmlns="http://www.w3.org/2000/svg">
<path d="M11.467 0.000244141C5.06943 0.423633 0.000305176 5.78656 0.000305176 12.3491H6.25805C6.25805 9.27952 8.53042 6.7039 11.502 6.3158V0.000244141H11.467Z" fill="#2E2E2E"/>
<path d="M13.1096 0.000244141V6.3158C16.0462 6.73919 18.2836 9.27952 18.2836 12.3491H24.5413C24.5413 5.78656 19.4722 0.423633 13.1096 0.000244141Z" fill="#2E2E2E"/>
<path d="M29.855 0.000244141C23.4574 0.423633 18.3883 5.78656 18.3883 12.3491H24.646C24.646 9.27952 26.9184 6.7039 29.89 6.3158V0.000244141H29.855Z" fill="#2E2E2E"/>
<path d="M31.498 0.000244141V6.3158C34.4346 6.73919 36.672 9.27952 36.672 12.3491H42.9297C42.9297 5.78656 37.8956 0.423633 31.498 0.000244141Z" fill="#2E2E2E"/>
<path d="M20.696 28.2968C17.6196 26.7797 7.02685 20.9934 6.53742 14.0427H0C0.489433 24.4158 16.7806 32.9894 20.6611 34.8946V28.2968H20.696Z" fill="#2E2E2E"/>
<path d="M36.4975 14.0427C36.0431 20.9934 25.4154 26.7797 22.3389 28.2968V34.8946C26.2194 32.9894 42.5455 24.4158 43 14.0427H36.4975Z" fill="#2E2E2E"/>
</svg>
